<svg xmlns="http://www.w3.org/2000/svg" viewBox="0 0 36 36" width="36" height="36" x="0px" y="0px"><g data-name=""><path d="M18.88889,12.66667H6.44444A4.44967,4.44967,0,0,0,2,17.11111V29.55556A4.44967,4.44967,0,0,0,6.44444,34H18.88889a4.44967,4.44967,0,0,0,4.44444-4.44444V17.11111A4.44967,4.44967,0,0,0,18.88889,12.66667Zm2.66667,16.88889a2.66958,2.66958,0,0,1-2.66667,2.66666H6.44444a2.66958,2.66958,0,0,1-2.66666-2.66666V17.11111a2.66959,2.66959,0,0,1,2.66666-2.66667H18.88889a2.66959,2.66959,0,0,1,2.66667,2.66667Z"/><path d="M29.55556,2H17.11111a4.44967,4.44967,0,0,0-4.44444,4.44444V10a.88889.88889,0,1,0,1.77777,0V6.44444a2.66959,2.66959,0,0,1,2.66667-2.66666H29.55556a2.66958,2.66958,0,0,1,2.66666,2.66666V18.88889a2.66958,2.66958,0,0,1-2.66666,2.66667H26a.88889.88889,0,1,0,0,1.77777h3.55556A4.44967,4.44967,0,0,0,34,18.88889V6.44444A4.44967,4.44967,0,0,0,29.55556,2Z"/></g></svg>