<?xml version="1.0" ?><!DOCTYPE svg  PUBLIC '-//W3C//DTD SVG 1.1//EN'  'http://www.w3.org/Graphics/SVG/1.1/DTD/svg11.dtd'><svg enable-background="new 0 0 48 48" height="48px" id="Layer_1" version="1.1" viewBox="0 0 48 48" width="48px" xml:space="preserve" xmlns="http://www.w3.org/2000/svg" xmlns:xlink="http://www.w3.org/1999/xlink"><g><path d="M28.084,21.295h-8.23c-0.841,0-1.522,0.682-1.522,1.522v8.23c0,0.84,0.682,1.523,1.522,1.523h8.23   c0.841,0,1.522-0.684,1.522-1.523v-8.23C29.606,21.977,28.925,21.295,28.084,21.295z" fill="white"/><path d="M24,0C10.745,0,0,10.745,0,24s10.745,24,24,24s24-10.745,24-24S37.255,0,24,0z M32.362,33.661   c0,0.852-0.689,1.541-1.539,1.541H17.177c-0.851,0-1.539-0.689-1.539-1.541V20.016c0-0.85,0.688-1.539,1.539-1.539h2.919   c0.783,0,0-0.426,0-0.426l0.003-0.008c-0.358-0.19-0.704-0.392-0.996-0.616c-0.333-0.218-0.604-0.516-0.803-0.862   c-0.01-0.018-0.024-0.033-0.033-0.05c0.001-0.001,0.003-0.002,0.004-0.003c-0.192-0.357-0.313-0.759-0.313-1.193   c0-1.393,1.128-2.521,2.521-2.521c1.192,0,2.187,0.831,2.448,1.944l0.005-0.003c0,0,0.37,1.441,0.675,2.745h0.001   c0,0,0.426,1.491,0.785,0c0.001-0.003,0.002-0.004,0.002-0.007c0.305-1.302,0.674-2.738,0.674-2.738l0.005,0.003   c0.262-1.113,1.256-1.944,2.448-1.944c1.393,0,2.521,1.128,2.521,2.521c0,0.435-0.12,0.836-0.313,1.193   c0.001,0.001,0.003,0.002,0.004,0.003c-0.009,0.017-0.023,0.032-0.033,0.05c-0.198,0.347-0.47,0.645-0.803,0.862   c-0.282,0.216-0.613,0.411-0.958,0.596l0.013,0.003c0,0-0.876,0.451,0,0.451h2.871c0.85,0,1.539,0.689,1.539,1.539V33.661z" fill="white"/></g></svg>